<svg xmlns="http://www.w3.org/2000/svg" xmlns:xlink="http://www.w3.org/1999/xlink" width="500" zoomAndPan="magnify" viewBox="0 0 375 374.999991" height="500" preserveAspectRatio="xMidYMid meet" version="1.0"><defs><g/><clipPath id="73133b66f9"><path d="M 76.421875 174.632812 L 318.078125 174.632812 L 318.078125 202.320312 L 76.421875 202.320312 Z M 76.421875 174.632812 " clip-rule="nonzero"/></clipPath><clipPath id="c002ffc667"><path d="M 90.265625 174.632812 L 304.234375 174.632812 C 307.90625 174.632812 311.429688 176.09375 314.023438 178.6875 C 316.621094 181.285156 318.078125 184.804688 318.078125 188.476562 C 318.078125 192.148438 316.621094 195.671875 314.023438 198.265625 C 311.429688 200.863281 307.90625 202.320312 304.234375 202.320312 L 90.265625 202.320312 C 86.59375 202.320312 83.070312 200.863281 80.476562 198.265625 C 77.878906 195.671875 76.421875 192.148438 76.421875 188.476562 C 76.421875 184.804688 77.878906 181.285156 80.476562 178.6875 C 83.070312 176.09375 86.59375 174.632812 90.265625 174.632812 Z M 90.265625 174.632812 " clip-rule="nonzero"/></clipPath></defs><path stroke-linecap="butt" transform="matrix(0.638842, 0, 0, 0.638842, 107.675813, 106.819673)" fill="none" stroke-linejoin="miter" d="M 86.545641 107.042746 C 81.855762 110.13672 77.636706 112.704842 73.894586 114.753224 C 70.152466 116.801607 66.581555 118.519802 63.187966 119.92004 C 62.986185 128.504903 62.790518 136.466079 62.588737 143.803569 C 62.393071 151.141058 62.215748 158.050528 62.062884 164.544206 C 61.916134 171.03177 61.793843 177.170803 61.689895 182.961305 C 61.592062 188.745693 61.494229 194.340529 61.390281 199.727469 C 66.685502 198.63296 72.170276 198.082648 77.862945 198.082648 C 83.353833 198.082648 89.719105 198.156023 96.952647 198.308887 C 104.192304 198.455637 111.701001 198.657418 119.49097 198.908116 C 127.274823 199.152699 135.113708 199.35448 142.995395 199.507344 C 150.883196 199.654094 158.220686 199.727469 165.007864 199.727469 L 172.045739 199.727469 L 172.045739 125.16023 C 168.951764 125.459845 165.185186 125.832834 160.73989 126.285312 C 156.300709 126.731676 151.280643 127.355363 145.691922 128.156372 C 151.084977 123.766107 155.92772 120.445893 160.220152 118.19573 C 164.512583 115.951681 168.205786 114.282402 171.299761 113.181779 C 174.889016 111.983322 178.086939 111.28626 180.881299 111.084479 C 184.476669 111.084479 188.365539 110.986646 192.560137 110.784865 C 196.754735 110.589199 200.845386 110.314043 204.838203 109.965512 C 208.83102 109.610867 212.450849 109.188961 215.697688 108.687566 C 218.938412 108.192286 221.359784 107.641974 222.955688 107.042746 C 218.265809 110.13672 214.046753 112.704842 210.304633 114.753224 C 206.562513 116.801607 202.991602 118.519802 199.598013 119.92004 C 199.096617 138.086441 198.69917 154.308408 198.399556 168.58594 C 198.099942 182.857357 197.824786 195.514527 197.574088 206.54522 C 197.329505 217.575912 197.127724 227.132993 196.980975 235.21646 C 196.82811 243.299928 196.705819 250.191054 196.601871 255.877608 C 196.302257 269.256298 196.204424 278.342556 196.302257 283.130268 C 196.204424 286.823471 195.703028 290.467757 194.804186 294.063127 C 194.009291 297.157102 192.810835 300.477316 191.214931 304.023769 C 189.619027 307.564108 187.319947 310.786489 184.323805 313.678683 C 186.12149 313.880464 187.870258 314.002755 189.563996 314.051672 C 191.263847 314.100588 192.957584 314.125047 194.657436 314.125047 C 199.347315 314.125047 203.566372 313.904922 207.308491 313.452444 C 211.050611 313.00608 214.29745 312.529143 217.042894 312.033862 C 219.788338 311.532467 221.959012 311.031072 223.554916 310.535791 C 225.15082 310.034396 226.15361 309.685866 226.551058 309.484085 C 221.261951 313.079454 216.865572 316.173429 213.374149 318.772124 C 209.882727 321.364703 206.733721 323.486461 203.939361 325.131281 C 201.145 326.782216 198.424014 328.005131 195.782518 328.800026 C 193.134907 329.601035 190.016474 329.998483 186.421104 329.998483 C 181.627278 329.998483 177.561085 329.802816 174.216413 329.399254 C 170.871741 329.001807 167.50261 328.800026 164.109021 328.800026 C 162.415284 328.800026 160.690974 328.879515 158.942205 329.026265 C 157.199552 329.17913 155.224544 329.503202 153.029412 329.998483 C 156.227334 328.500412 159.021695 326.928966 161.418608 325.284146 C 163.809407 323.63321 165.784415 321.340245 167.331402 318.39302 C 168.878389 315.451909 170.052388 311.556925 170.847282 306.714182 C 171.648292 301.877554 172.045739 295.408334 172.045739 287.324866 L 172.045739 209.461872 C 169.153545 210.0611 165.906706 210.562495 162.311336 210.959943 C 158.722081 211.35739 154.576399 211.559171 149.88652 211.559171 C 143.398957 211.559171 135.810769 211.35739 127.128073 210.959943 C 118.439263 210.562495 108.955557 210.360714 98.676957 210.360714 C 92.586841 210.360714 86.42335 210.507464 80.186483 210.807078 C 73.943503 211.106692 67.57823 211.608087 61.090667 212.305149 C 60.693219 226.980128 60.418063 238.909663 60.271314 248.093755 C 60.118449 257.277846 59.996158 264.462471 59.89221 269.653745 C 59.794377 275.743861 59.74546 280.238074 59.74546 283.130268 C 59.647627 286.823471 59.146232 290.467757 58.247389 294.063127 C 57.44638 297.157102 56.247923 300.477316 54.652019 304.023769 C 53.056115 307.564108 50.76315 310.786489 47.767008 313.678683 C 49.662527 313.880464 51.460211 314.002755 53.153949 314.051672 C 54.8538 314.100588 56.547538 314.125047 58.247389 314.125047 C 62.937268 314.125047 67.156325 313.904922 70.898444 313.452444 C 74.640564 313.00608 77.887403 312.529143 80.632847 312.033862 C 83.378291 311.532467 85.548965 311.031072 87.144869 310.535791 C 88.740773 310.034396 89.743564 309.685866 90.141011 309.484085 C 84.851904 313.079454 80.455525 316.173429 76.964103 318.772124 C 73.47268 321.364703 70.323674 323.486461 67.529314 325.131281 C 64.734953 326.782216 62.013967 328.005131 59.372471 328.800026 C 56.72486 329.601035 53.606427 329.998483 50.011057 329.998483 C 45.223345 329.998483 41.12658 329.802816 37.732991 329.399254 C 34.339402 329.001807 30.945813 328.800026 27.552224 328.800026 C 25.852373 328.800026 24.134177 328.879515 22.385409 329.026265 C 20.63664 329.17913 18.716664 329.503202 16.619365 329.998483 C 19.413726 327.601569 21.963503 324.984531 24.256469 322.141254 C 26.555549 319.291862 28.524442 315.824899 30.169262 311.734248 C 31.820198 307.637483 33.092029 302.745823 33.990872 297.059269 C 34.889714 291.3666 35.336078 284.481589 35.336078 276.392006 L 35.336078 216.799361 C 33.043113 217.300756 30.792949 217.844954 28.597817 218.444182 C 26.402684 219.04341 24.207552 219.746586 22.01242 220.541481 C 24.207552 218.54813 26.402684 216.701528 28.597817 215.001676 C 30.792949 213.307939 33.043113 211.657004 35.336078 210.0611 L 35.336078 125.16023 C 32.242103 125.459845 28.499984 125.832834 24.109719 126.285312 C 19.71334 126.731676 14.723847 127.355363 9.135125 128.156372 C 14.522066 123.766107 19.389267 120.445893 23.730615 118.19573 C 28.078078 115.951681 31.795739 114.282402 34.889714 113.181779 C 38.485084 111.983322 41.676892 111.28626 44.471253 111.084479 C 47.962675 111.084479 51.833201 110.986646 56.076715 110.784865 C 60.32023 110.589199 64.410881 110.314043 68.354781 109.965512 C 72.298682 109.610867 75.91851 109.188961 79.208151 108.687566 C 82.503907 108.192286 84.949737 107.641974 86.545641 107.042746 Z M 90.141011 309.484085 L 90.141011 309.337335 C 90.238844 309.239502 90.342792 309.18447 90.440625 309.18447 Z M 226.551058 309.484085 L 226.551058 309.337335 L 226.697808 309.337335 C 226.801755 309.239502 226.899589 309.18447 226.997422 309.18447 Z M 226.551058 309.484085 " stroke="#ffffff" stroke-width="17.250019" stroke-opacity="1" stroke-miterlimit="4"/><g fill="#000000" fill-opacity="1"><g transform="translate(107.675813, 317.637688)"><g><path d="M 55.296875 -142.4375 C 52.296875 -140.457031 49.597656 -138.8125 47.203125 -137.5 C 44.816406 -136.195312 42.539062 -135.097656 40.375 -134.203125 C 40.238281 -128.722656 40.109375 -123.640625 39.984375 -118.953125 C 39.859375 -114.265625 39.742188 -109.847656 39.640625 -105.703125 C 39.546875 -101.554688 39.46875 -97.632812 39.40625 -93.9375 C 39.34375 -90.238281 39.28125 -86.664062 39.21875 -83.21875 C 42.601562 -83.925781 46.109375 -84.28125 49.734375 -84.28125 C 53.242188 -84.28125 57.3125 -84.226562 61.9375 -84.125 C 66.5625 -84.03125 71.359375 -83.90625 76.328125 -83.75 C 81.304688 -83.59375 86.3125 -83.460938 91.34375 -83.359375 C 96.382812 -83.265625 101.078125 -83.21875 105.421875 -83.21875 L 109.90625 -83.21875 L 109.90625 -130.859375 C 107.925781 -130.671875 105.519531 -130.429688 102.6875 -130.140625 C 99.851562 -129.859375 96.648438 -129.460938 93.078125 -128.953125 C 96.515625 -131.753906 99.601562 -133.867188 102.34375 -135.296875 C 105.09375 -136.734375 107.457031 -137.804688 109.4375 -138.515625 C 111.726562 -139.273438 113.765625 -139.71875 115.546875 -139.84375 C 117.847656 -139.84375 120.335938 -139.90625 123.015625 -140.03125 C 125.691406 -140.164062 128.304688 -140.34375 130.859375 -140.5625 C 133.410156 -140.789062 135.722656 -141.0625 137.796875 -141.375 C 139.867188 -141.695312 141.414062 -142.050781 142.4375 -142.4375 C 139.4375 -140.457031 136.738281 -138.8125 134.34375 -137.5 C 131.957031 -136.195312 129.679688 -135.097656 127.515625 -134.203125 C 127.191406 -122.597656 126.929688 -112.234375 126.734375 -103.109375 C 126.546875 -93.992188 126.375 -85.910156 126.21875 -78.859375 C 126.0625 -71.816406 125.929688 -65.710938 125.828125 -60.546875 C 125.734375 -55.378906 125.65625 -50.976562 125.59375 -47.34375 C 125.40625 -38.800781 125.34375 -33 125.40625 -29.9375 C 125.34375 -27.582031 125.023438 -25.253906 124.453125 -22.953125 C 123.941406 -20.984375 123.175781 -18.863281 122.15625 -16.59375 C 121.132812 -14.332031 119.664062 -12.273438 117.75 -10.421875 C 118.894531 -10.296875 120.007812 -10.21875 121.09375 -10.1875 C 122.1875 -10.15625 123.273438 -10.140625 124.359375 -10.140625 C 127.347656 -10.140625 130.039062 -10.28125 132.4375 -10.5625 C 134.832031 -10.851562 136.90625 -11.15625 138.65625 -11.46875 C 140.40625 -11.789062 141.789062 -12.109375 142.8125 -12.421875 C 143.832031 -12.742188 144.472656 -12.972656 144.734375 -13.109375 C 141.347656 -10.804688 138.539062 -8.828125 136.3125 -7.171875 C 134.082031 -5.515625 132.070312 -4.160156 130.28125 -3.109375 C 128.5 -2.054688 126.757812 -1.273438 125.0625 -0.765625 C 123.375 -0.253906 121.382812 0 119.09375 0 C 116.03125 0 113.429688 -0.125 111.296875 -0.375 C 109.160156 -0.632812 107.007812 -0.765625 104.84375 -0.765625 C 103.757812 -0.765625 102.65625 -0.71875 101.53125 -0.625 C 100.414062 -0.53125 99.160156 -0.320312 97.765625 0 C 99.804688 -0.957031 101.59375 -1.960938 103.125 -3.015625 C 104.65625 -4.066406 105.910156 -5.53125 106.890625 -7.40625 C 107.878906 -9.289062 108.628906 -11.78125 109.140625 -14.875 C 109.648438 -17.96875 109.90625 -22.097656 109.90625 -27.265625 L 109.90625 -77 C 108.0625 -76.625 105.988281 -76.304688 103.6875 -76.046875 C 101.394531 -75.796875 98.75 -75.671875 95.75 -75.671875 C 91.601562 -75.671875 86.753906 -75.796875 81.203125 -76.046875 C 75.660156 -76.304688 69.601562 -76.4375 63.03125 -76.4375 C 59.144531 -76.4375 55.207031 -76.335938 51.21875 -76.140625 C 47.238281 -75.953125 43.175781 -75.632812 39.03125 -75.1875 C 38.769531 -65.8125 38.59375 -58.191406 38.5 -52.328125 C 38.40625 -46.460938 38.328125 -41.867188 38.265625 -38.546875 C 38.203125 -34.660156 38.171875 -31.789062 38.171875 -29.9375 C 38.109375 -27.582031 37.785156 -25.253906 37.203125 -22.953125 C 36.703125 -20.984375 35.941406 -18.863281 34.921875 -16.59375 C 33.898438 -14.332031 32.429688 -12.273438 30.515625 -10.421875 C 31.722656 -10.296875 32.867188 -10.21875 33.953125 -10.1875 C 35.035156 -10.15625 36.117188 -10.140625 37.203125 -10.140625 C 40.203125 -10.140625 42.894531 -10.28125 45.28125 -10.5625 C 47.675781 -10.851562 49.75 -11.15625 51.5 -11.46875 C 53.257812 -11.789062 54.648438 -12.109375 55.671875 -12.421875 C 56.691406 -12.742188 57.328125 -12.972656 57.578125 -13.109375 C 54.203125 -10.804688 51.394531 -8.828125 49.15625 -7.171875 C 46.925781 -5.515625 44.921875 -4.160156 43.140625 -3.109375 C 41.359375 -2.054688 39.617188 -1.273438 37.921875 -0.765625 C 36.234375 -0.253906 34.242188 0 31.953125 0 C 28.890625 0 26.273438 -0.125 24.109375 -0.375 C 21.941406 -0.632812 19.769531 -0.765625 17.59375 -0.765625 C 16.507812 -0.765625 15.410156 -0.71875 14.296875 -0.625 C 13.179688 -0.53125 11.957031 -0.320312 10.625 0 C 12.40625 -1.53125 14.03125 -3.203125 15.5 -5.015625 C 16.96875 -6.835938 18.226562 -9.054688 19.28125 -11.671875 C 20.332031 -14.285156 21.144531 -17.410156 21.71875 -21.046875 C 22.289062 -24.679688 22.578125 -29.082031 22.578125 -34.25 L 22.578125 -72.3125 C 21.109375 -72 19.671875 -71.648438 18.265625 -71.265625 C 16.867188 -70.878906 15.46875 -70.429688 14.0625 -69.921875 C 15.46875 -71.203125 16.867188 -72.382812 18.265625 -73.46875 C 19.671875 -74.550781 21.109375 -75.601562 22.578125 -76.625 L 22.578125 -130.859375 C 20.597656 -130.671875 18.203125 -130.429688 15.390625 -130.140625 C 12.585938 -129.859375 9.398438 -129.460938 5.828125 -128.953125 C 9.273438 -131.753906 12.382812 -133.867188 15.15625 -135.296875 C 17.9375 -136.734375 20.3125 -137.804688 22.28125 -138.515625 C 24.582031 -139.273438 26.625 -139.71875 28.40625 -139.84375 C 30.644531 -139.84375 33.117188 -139.90625 35.828125 -140.03125 C 38.535156 -140.164062 41.148438 -140.34375 43.671875 -140.5625 C 46.191406 -140.789062 48.503906 -141.0625 50.609375 -141.375 C 52.710938 -141.695312 54.273438 -142.050781 55.296875 -142.4375 Z M 57.578125 -13.109375 L 57.578125 -13.203125 C 57.648438 -13.265625 57.71875 -13.296875 57.78125 -13.296875 Z M 144.734375 -13.109375 L 144.734375 -13.203125 L 144.828125 -13.203125 C 144.890625 -13.265625 144.953125 -13.296875 145.015625 -13.296875 Z M 144.734375 -13.109375 "/></g></g></g><path stroke-linecap="butt" transform="matrix(0.796661, 0, 0, 0.796661, 109.830079, -37.930954)" fill="none" stroke-linejoin="miter" d="M 59.744005 314.429276 C 54.453367 317.420276 49.388279 319.916045 44.548743 321.916583 C 39.704303 323.912218 35.188383 325.505784 30.996079 326.707087 C 26.803775 327.903487 23.033153 328.751755 19.689117 329.251889 C 16.34508 329.752024 13.476662 330.002091 11.078959 330.002091 L -11.37806 330.002091 L 4.940053 320.867282 C 6.636588 318.670612 8.284089 316.473943 9.882558 314.277274 C 11.481027 312.080605 12.829429 310.035938 13.927764 308.138369 C 15.222229 306.039765 16.423533 303.946065 17.516964 301.847461 C 20.615837 295.561457 25.205306 285.377346 31.295179 271.304935 C 33.790948 265.313128 36.762335 258.178856 40.204437 249.892314 C 43.646539 241.605772 47.618196 231.970829 52.109599 220.992386 C 56.601003 210.009041 61.592541 197.535098 67.084214 183.555849 C 72.570984 169.581503 78.709889 153.910623 85.500931 136.538304 L 111.552054 112.580882 L 170.24921 311.580471 C 174.441513 312.678805 178.462202 313.379974 182.306373 313.679074 C 186.145641 313.978174 189.764261 314.130176 193.162234 314.130176 C 194.956834 314.130176 196.604336 314.100756 198.099836 314.051723 C 199.600239 314.002691 200.894705 313.929141 201.99304 313.826173 C 203.194343 313.728107 204.34171 313.581009 205.440045 313.379974 C 199.649272 316.174843 194.608701 318.597063 190.313428 320.641731 C 186.023059 322.686398 182.203405 324.407449 178.859368 325.809787 C 175.515332 327.207222 172.421362 328.25162 169.57746 328.952789 C 166.733558 329.649055 163.860237 330.002091 160.967302 330.002091 L 137.00988 330.002091 L 144.796287 325.059585 L 120.838865 245.700011 C 117.941027 246.499245 114.59699 247.26906 110.806755 248.019262 C 107.011617 248.769463 102.495697 249.441213 97.254091 250.039413 C 92.012486 250.637613 85.922613 251.18678 78.984473 251.686915 C 72.046333 252.187049 64.039278 252.638151 54.953501 253.035316 C 50.761198 261.920058 46.917027 269.804531 43.425892 276.693639 C 39.929854 283.582746 36.786852 289.56965 33.991982 294.664157 C 31.197113 299.753761 28.725861 304.04413 26.578224 307.540169 C 24.430588 311.031303 22.611471 313.826173 21.111068 315.924776 C 22.807602 316.223876 24.705172 316.449427 26.803775 316.596525 C 28.897475 316.748527 30.996079 316.822076 33.089779 316.822076 C 36.286717 316.822076 39.454236 316.699494 42.602141 316.449427 C 45.745143 316.19936 48.613561 315.924776 51.207396 315.625676 C 54.2033 315.223607 57.047202 314.826441 59.744005 314.429276 Z M 80.705524 235.2168 C 94.184639 235.2168 106.413417 234.917699 117.391859 234.319499 L 94.483739 158.250025 C 88.2958 174.126843 82.627609 188.29732 77.488973 200.776166 C 72.345433 213.255012 67.48138 224.733588 62.887007 235.2168 Z M 80.705524 235.2168 " stroke="#ffffff" stroke-width="15.33335" stroke-opacity="1" stroke-miterlimit="4"/><g fill="#000000" fill-opacity="1"><g transform="translate(109.830079, 224.967084)"><g><path d="M 47.59375 -12.40625 C 43.375 -10.019531 39.335938 -8.03125 35.484375 -6.4375 C 31.628906 -4.851562 28.03125 -3.582031 24.6875 -2.625 C 21.351562 -1.664062 18.351562 -0.988281 15.6875 -0.59375 C 13.019531 -0.195312 10.734375 0 8.828125 0 L -9.0625 0 L 3.9375 -7.28125 C 5.289062 -9.03125 6.601562 -10.78125 7.875 -12.53125 C 9.144531 -14.28125 10.21875 -15.910156 11.09375 -17.421875 C 12.125 -19.085938 13.078125 -20.753906 13.953125 -22.421875 C 16.421875 -27.429688 20.082031 -35.546875 24.9375 -46.765625 C 26.914062 -51.535156 29.273438 -57.21875 32.015625 -63.8125 C 34.765625 -70.414062 37.925781 -78.09375 41.5 -86.84375 C 45.082031 -95.59375 49.0625 -105.53125 53.4375 -116.65625 C 57.8125 -127.789062 62.703125 -140.273438 68.109375 -154.109375 L 88.875 -173.203125 L 135.625 -14.671875 C 138.96875 -13.796875 142.171875 -13.238281 145.234375 -13 C 148.296875 -12.757812 151.175781 -12.640625 153.875 -12.640625 C 155.3125 -12.640625 156.625 -12.660156 157.8125 -12.703125 C 159.007812 -12.742188 160.046875 -12.804688 160.921875 -12.890625 C 161.867188 -12.960938 162.78125 -13.078125 163.65625 -13.234375 C 159.039062 -11.015625 155.023438 -9.085938 151.609375 -7.453125 C 148.191406 -5.828125 145.148438 -4.457031 142.484375 -3.34375 C 139.816406 -2.226562 137.347656 -1.390625 135.078125 -0.828125 C 132.816406 -0.273438 130.535156 0 128.234375 0 L 109.140625 0 L 115.34375 -3.9375 L 96.265625 -67.15625 C 93.953125 -66.519531 91.285156 -65.90625 88.265625 -65.3125 C 85.242188 -64.71875 81.644531 -64.179688 77.46875 -63.703125 C 73.300781 -63.222656 68.453125 -62.785156 62.921875 -62.390625 C 57.390625 -61.992188 51.007812 -61.632812 43.78125 -61.3125 C 40.4375 -54.238281 37.375 -47.957031 34.59375 -42.46875 C 31.8125 -36.976562 29.304688 -32.203125 27.078125 -28.140625 C 24.847656 -24.085938 22.878906 -20.671875 21.171875 -17.890625 C 19.460938 -15.109375 18.007812 -12.882812 16.8125 -11.21875 C 18.164062 -10.976562 19.675781 -10.796875 21.34375 -10.671875 C 23.019531 -10.554688 24.691406 -10.5 26.359375 -10.5 C 28.898438 -10.5 31.421875 -10.597656 33.921875 -10.796875 C 36.429688 -10.992188 38.722656 -11.210938 40.796875 -11.453125 C 43.179688 -11.765625 45.445312 -12.082031 47.59375 -12.40625 Z M 64.296875 -75.5 C 75.035156 -75.5 84.773438 -75.738281 93.515625 -76.21875 L 75.265625 -136.828125 C 70.335938 -124.179688 65.828125 -112.882812 61.734375 -102.9375 C 57.640625 -93 53.757812 -83.851562 50.09375 -75.5 Z M 64.296875 -75.5 "/></g></g></g><path stroke-linecap="butt" transform="matrix(0.638842, 0, 0, 0.638842, 120.347289, 69.790469)" fill="none" stroke-linejoin="miter" d="M 165.234727 266.81338 C 165.234727 271.900706 163.589907 277.140896 160.294151 282.533951 C 156.998395 287.927006 152.681506 293.142738 147.343482 298.181148 C 141.999344 303.219557 136.013175 307.988926 129.372747 312.483138 C 122.738433 316.971236 116.049089 320.939595 109.310827 324.3821 C 102.572566 327.83072 96.109461 330.576165 89.921511 332.618432 C 83.727447 334.666815 78.487256 335.736866 74.194825 335.840813 C 70.104174 336.03648 65.71391 335.687949 61.017916 334.789106 C 56.328038 333.890264 51.858283 332.771297 47.620883 331.419976 C 43.377368 330.074769 39.580217 328.625615 36.24166 327.078628 C 32.896987 325.53164 30.622366 324.161976 29.423909 322.963519 C 28.726847 322.16251 28.152077 321.288126 27.705713 320.340366 C 27.253235 319.392607 27.026996 318.347015 27.026996 317.197475 C 27.026996 316.047935 27.357183 314.849478 28.005328 313.602105 C 28.653473 312.354732 29.723523 311.0829 31.221594 309.786611 C 32.621831 308.685987 34.364485 307.291864 36.461784 305.592012 C 38.259469 304.197889 40.558549 302.375746 43.35291 300.125583 C 46.147271 297.881534 49.589776 295.160548 53.680427 291.96874 C 52.188471 293.466811 51.234597 294.860934 50.837149 296.157224 C 50.439702 297.459628 50.286838 298.658085 50.390786 299.752593 C 50.488619 300.95105 50.886066 302.051674 51.589242 303.048349 C 52.585918 304.344639 54.334686 305.793793 56.829433 307.389697 C 59.324179 308.985601 62.344779 310.459214 65.885118 311.80442 C 69.431571 313.155741 73.424388 314.274708 77.86357 315.173551 C 82.308865 316.072393 86.925369 316.524872 91.713081 316.524872 C 97.607531 316.524872 103.44695 315.950102 109.237452 314.800562 C 115.027955 313.651022 120.243687 311.731045 124.884649 309.034518 C 129.525611 306.344105 133.267731 302.773193 136.111008 298.327898 C 138.9604 293.888716 140.378981 288.37337 140.378981 281.781858 C 140.378981 275.697857 138.9604 270.32926 136.111008 265.688298 C 133.267731 261.047336 129.55007 256.877196 124.958024 253.183993 C 120.365978 249.49079 115.10133 246.121659 109.157963 243.076601 C 103.220711 240.031542 97.179511 237.010943 91.040478 234.020916 C 84.901445 231.024774 78.86636 227.979716 72.922993 224.885741 C 66.985741 221.791766 61.721092 218.318688 57.129047 214.478735 C 52.537001 210.632667 48.81934 206.291319 45.969948 201.448576 C 43.126671 196.611948 41.701975 190.992653 41.701975 184.609037 C 41.701975 178.414973 43.224504 172.35543 46.269562 166.412063 C 49.31462 160.474811 53.331896 154.88609 58.327503 149.639785 C 63.316996 144.399594 69.028009 139.532393 75.466656 135.044295 C 81.905304 130.550083 88.521273 126.685671 95.308451 123.438832 C 102.095629 120.191993 108.760516 117.64833 115.296996 115.801728 C 121.839591 113.955127 127.752385 112.98291 133.041492 112.885076 C 138.134932 112.781129 143.026592 113.007368 147.716471 113.55768 C 152.40635 114.107991 156.35025 114.927344 159.548173 116.027968 C 162.739981 117.122477 164.935113 118.498256 166.13357 120.143076 C 167.332027 121.794012 167.032412 123.665071 165.234727 125.762371 C 163.736657 127.456108 161.890055 129.253793 159.694923 131.149311 C 157.701571 132.849163 155.255742 134.744681 152.357433 136.84198 C 149.465239 138.939279 145.918786 141.183328 141.730302 143.580241 C 142.525197 142.381785 142.977676 141.305619 143.075509 140.35786 C 143.173342 139.410101 143.124425 138.639665 142.928759 138.040437 C 142.629145 137.337261 142.225583 136.738032 141.730302 136.242752 C 141.027126 135.643523 139.804211 134.995378 138.061557 134.292202 C 136.312789 133.595141 134.142115 132.898079 131.543421 132.201018 C 128.950841 131.497842 126.003616 130.923072 122.713975 130.476708 C 119.418219 130.024229 115.920683 129.804104 112.227479 129.804104 C 106.241311 129.804104 100.475267 130.525624 94.935462 131.974779 C 89.395658 133.423933 84.503998 135.643523 80.260483 138.639665 C 76.016968 141.629692 72.623379 145.426843 70.079716 150.018888 C 67.536053 154.610934 66.258107 159.997874 66.258107 166.185824 C 66.258107 172.979116 67.682803 178.916368 70.52608 184.009809 C 73.375472 189.097135 77.117592 193.615806 81.758554 197.559707 C 86.399516 201.503607 91.688623 205.068404 97.63199 208.266327 C 103.569242 211.458135 109.610441 214.527651 115.749474 217.474876 C 121.888507 220.415987 127.929707 223.436587 133.866959 226.530562 C 139.804211 229.624536 145.099433 233.073156 149.740395 236.864193 C 154.381357 240.655229 158.123477 244.972119 160.966754 249.814862 C 163.816146 254.657605 165.234727 260.319701 165.234727 266.81338 Z M 165.234727 266.81338 " stroke="#ffffff" stroke-width="22.616692" stroke-opacity="1" stroke-miterlimit="4"/><g fill="#000000" fill-opacity="1"><g transform="translate(134.841027, 280.608484)"><g><path d="M 91.0625 -40.375 C 91.0625 -37.113281 90.007812 -33.757812 87.90625 -30.3125 C 85.800781 -26.875 83.039062 -23.546875 79.625 -20.328125 C 76.21875 -17.109375 72.394531 -14.0625 68.15625 -11.1875 C 63.914062 -8.320312 59.640625 -5.785156 55.328125 -3.578125 C 51.023438 -1.378906 46.894531 0.367188 42.9375 1.671875 C 38.988281 2.984375 35.644531 3.671875 32.90625 3.734375 C 30.289062 3.859375 27.484375 3.632812 24.484375 3.0625 C 21.492188 2.488281 18.640625 1.769531 15.921875 0.90625 C 13.210938 0.0507812 10.789062 -0.867188 8.65625 -1.859375 C 6.519531 -2.847656 5.066406 -3.726562 4.296875 -4.5 C 3.859375 -5.007812 3.492188 -5.566406 3.203125 -6.171875 C 2.921875 -6.773438 2.78125 -7.441406 2.78125 -8.171875 C 2.78125 -8.910156 2.984375 -9.675781 3.390625 -10.46875 C 3.804688 -11.269531 4.492188 -12.082031 5.453125 -12.90625 C 6.347656 -13.613281 7.460938 -14.507812 8.796875 -15.59375 C 9.941406 -16.488281 11.40625 -17.648438 13.1875 -19.078125 C 14.976562 -20.515625 17.179688 -22.253906 19.796875 -24.296875 C 18.835938 -23.335938 18.226562 -22.441406 17.96875 -21.609375 C 17.71875 -20.785156 17.628906 -20.023438 17.703125 -19.328125 C 17.765625 -18.554688 18.019531 -17.851562 18.46875 -17.21875 C 19.101562 -16.382812 20.21875 -15.457031 21.8125 -14.4375 C 23.40625 -13.414062 25.332031 -12.472656 27.59375 -11.609375 C 29.863281 -10.753906 32.414062 -10.039062 35.25 -9.46875 C 38.082031 -8.894531 41.03125 -8.609375 44.09375 -8.609375 C 47.851562 -8.609375 51.582031 -8.972656 55.28125 -9.703125 C 58.988281 -10.441406 62.320312 -11.671875 65.28125 -13.390625 C 68.25 -15.109375 70.640625 -17.382812 72.453125 -20.21875 C 74.273438 -23.0625 75.1875 -26.585938 75.1875 -30.796875 C 75.1875 -34.691406 74.273438 -38.117188 72.453125 -41.078125 C 70.640625 -44.046875 68.265625 -46.707031 65.328125 -49.0625 C 62.398438 -51.425781 59.035156 -53.582031 55.234375 -55.53125 C 51.441406 -57.476562 47.582031 -59.40625 43.65625 -61.3125 C 39.738281 -63.226562 35.882812 -65.171875 32.09375 -67.140625 C 28.300781 -69.117188 24.9375 -71.335938 22 -73.796875 C 19.0625 -76.253906 16.6875 -79.03125 14.875 -82.125 C 13.0625 -85.21875 12.15625 -88.804688 12.15625 -92.890625 C 12.15625 -96.835938 13.125 -100.707031 15.0625 -104.5 C 17.007812 -108.300781 19.578125 -111.875 22.765625 -115.21875 C 25.953125 -118.5625 29.601562 -121.664062 33.71875 -124.53125 C 37.832031 -127.40625 42.054688 -129.878906 46.390625 -131.953125 C 50.734375 -134.023438 54.988281 -135.648438 59.15625 -136.828125 C 63.332031 -138.015625 67.113281 -138.640625 70.5 -138.703125 C 73.75 -138.765625 76.875 -138.617188 79.875 -138.265625 C 82.875 -137.921875 85.390625 -137.394531 87.421875 -136.6875 C 89.460938 -135.988281 90.863281 -135.113281 91.625 -134.0625 C 92.394531 -133.007812 92.207031 -131.816406 91.0625 -130.484375 C 90.101562 -129.390625 88.925781 -128.238281 87.53125 -127.03125 C 86.25 -125.945312 84.679688 -124.734375 82.828125 -123.390625 C 80.984375 -122.054688 78.722656 -120.625 76.046875 -119.09375 C 76.554688 -119.851562 76.84375 -120.535156 76.90625 -121.140625 C 76.96875 -121.753906 76.9375 -122.25 76.8125 -122.625 C 76.625 -123.070312 76.367188 -123.457031 76.046875 -123.78125 C 75.597656 -124.164062 74.816406 -124.578125 73.703125 -125.015625 C 72.585938 -125.460938 71.203125 -125.910156 69.546875 -126.359375 C 67.890625 -126.804688 66.007812 -127.171875 63.90625 -127.453125 C 61.800781 -127.742188 59.566406 -127.890625 57.203125 -127.890625 C 53.378906 -127.890625 49.695312 -127.425781 46.15625 -126.5 C 42.613281 -125.582031 39.488281 -124.164062 36.78125 -122.25 C 34.070312 -120.332031 31.90625 -117.90625 30.28125 -114.96875 C 28.65625 -112.039062 27.84375 -108.601562 27.84375 -104.65625 C 27.84375 -100.3125 28.75 -96.515625 30.5625 -93.265625 C 32.375 -90.015625 34.765625 -87.128906 37.734375 -84.609375 C 40.703125 -82.085938 44.082031 -79.804688 47.875 -77.765625 C 51.664062 -75.722656 55.519531 -73.757812 59.4375 -71.875 C 63.363281 -70 67.222656 -68.070312 71.015625 -66.09375 C 74.816406 -64.125 78.195312 -61.925781 81.15625 -59.5 C 84.125 -57.070312 86.515625 -54.3125 88.328125 -51.21875 C 90.148438 -48.125 91.0625 -44.507812 91.0625 -40.375 Z M 91.0625 -40.375 "/></g></g></g><g clip-path="url(#73133b66f9)"><g clip-path="url(#c002ffc667)"><path fill="#000000" d="M 76.421875 174.632812 L 318.078125 174.632812 L 318.078125 202.320312 L 76.421875 202.320312 Z M 76.421875 174.632812 " fill-opacity="1" fill-rule="nonzero"/></g></g><g fill="#ffffff" fill-opacity="1"><g transform="translate(118.430607, 197.057691)"><g><path d="M 21.546875 -1.265625 C 21.378906 -1.128906 21.140625 -0.96875 20.828125 -0.78125 C 20.523438 -0.601562 20.164062 -0.4375 19.75 -0.28125 C 19.34375 -0.125 18.894531 0.00390625 18.40625 0.109375 C 17.914062 0.210938 17.40625 0.265625 16.875 0.265625 C 16.96875 0.0976562 17.039062 -0.0507812 17.09375 -0.1875 C 17.15625 -0.332031 17.207031 -0.472656 17.25 -0.609375 C 17.289062 -0.742188 17.316406 -0.878906 17.328125 -1.015625 C 17.347656 -1.148438 17.359375 -1.300781 17.359375 -1.46875 C 17.359375 -1.644531 17.347656 -1.960938 17.328125 -2.421875 C 17.304688 -2.878906 17.28125 -3.414062 17.25 -4.03125 C 17.21875 -4.65625 17.179688 -5.332031 17.140625 -6.0625 C 17.109375 -6.789062 17.078125 -7.507812 17.046875 -8.21875 C 17.015625 -8.925781 16.984375 -9.597656 16.953125 -10.234375 C 16.929688 -10.878906 16.921875 -11.429688 16.921875 -11.890625 C 16.546875 -11.222656 16.171875 -10.609375 15.796875 -10.046875 C 15.429688 -9.492188 15.070312 -8.960938 14.71875 -8.453125 C 14.375 -7.941406 14.035156 -7.441406 13.703125 -6.953125 C 13.367188 -6.460938 13.046875 -5.953125 12.734375 -5.421875 C 12.429688 -4.890625 12.140625 -4.332031 11.859375 -3.75 C 11.578125 -3.164062 11.316406 -2.519531 11.078125 -1.8125 L 9.21875 0.265625 C 9.238281 0.015625 9.191406 -0.28125 9.078125 -0.625 C 8.972656 -0.976562 8.847656 -1.320312 8.703125 -1.65625 C 8.546875 -2.039062 8.363281 -2.4375 8.15625 -2.84375 C 7.914062 -3.28125 7.59375 -3.882812 7.1875 -4.65625 C 6.832031 -5.300781 6.363281 -6.164062 5.78125 -7.25 C 5.207031 -8.332031 4.488281 -9.675781 3.625 -11.28125 C 3.570312 -10.414062 3.523438 -9.535156 3.484375 -8.640625 C 3.441406 -7.753906 3.378906 -6.875 3.296875 -6 C 3.222656 -5.132812 3.113281 -4.28125 2.96875 -3.4375 C 2.832031 -2.601562 2.648438 -1.8125 2.421875 -1.0625 C 2.546875 -1.019531 2.679688 -0.988281 2.828125 -0.96875 C 2.972656 -0.945312 3.125 -0.9375 3.28125 -0.9375 C 3.4375 -0.9375 3.582031 -0.941406 3.71875 -0.953125 C 3.863281 -0.972656 3.992188 -0.988281 4.109375 -1 C 4.234375 -1.019531 4.359375 -1.039062 4.484375 -1.0625 C 4.179688 -0.832031 3.90625 -0.632812 3.65625 -0.46875 C 3.40625 -0.3125 3.144531 -0.175781 2.875 -0.0625 C 2.601562 0.0507812 2.304688 0.132812 1.984375 0.1875 C 1.671875 0.238281 1.296875 0.265625 0.859375 0.265625 C 1.054688 0.078125 1.226562 -0.238281 1.375 -0.6875 C 1.519531 -1.132812 1.644531 -1.664062 1.75 -2.28125 C 1.851562 -2.894531 1.9375 -3.570312 2 -4.3125 C 2.070312 -5.0625 2.132812 -5.828125 2.1875 -6.609375 C 2.25 -7.398438 2.296875 -8.191406 2.328125 -8.984375 C 2.359375 -9.773438 2.390625 -10.523438 2.421875 -11.234375 C 2.453125 -11.941406 2.484375 -12.585938 2.515625 -13.171875 C 2.554688 -13.765625 2.609375 -14.25 2.671875 -14.625 L 4.21875 -16.328125 C 4.15625 -16.210938 4.125 -16.082031 4.125 -15.9375 C 4.125 -15.800781 4.140625 -15.671875 4.171875 -15.546875 C 4.203125 -15.390625 4.242188 -15.234375 4.296875 -15.078125 C 4.335938 -14.984375 4.4375 -14.78125 4.59375 -14.46875 C 4.75 -14.15625 4.941406 -13.769531 5.171875 -13.3125 C 5.410156 -12.851562 5.679688 -12.332031 5.984375 -11.75 C 6.285156 -11.175781 6.597656 -10.570312 6.921875 -9.9375 C 7.253906 -9.3125 7.585938 -8.675781 7.921875 -8.03125 C 8.253906 -7.382812 8.570312 -6.765625 8.875 -6.171875 C 9.1875 -5.585938 9.46875 -5.039062 9.71875 -4.53125 C 9.976562 -4.019531 10.191406 -3.585938 10.359375 -3.234375 C 10.960938 -4.171875 11.578125 -5.117188 12.203125 -6.078125 C 12.828125 -7.046875 13.425781 -8.003906 14 -8.953125 C 14.570312 -9.910156 15.101562 -10.859375 15.59375 -11.796875 C 16.09375 -12.742188 16.519531 -13.671875 16.875 -14.578125 L 19.109375 -16.328125 C 19.066406 -15.015625 19.054688 -13.753906 19.078125 -12.546875 C 19.097656 -11.335938 19.128906 -10.160156 19.171875 -9.015625 C 19.222656 -7.867188 19.269531 -6.742188 19.3125 -5.640625 C 19.351562 -4.535156 19.375 -3.4375 19.375 -2.34375 C 19.375 -2.019531 19.351562 -1.753906 19.3125 -1.546875 C 19.269531 -1.347656 19.203125 -1.207031 19.109375 -1.125 C 19.429688 -1.082031 19.765625 -1.0625 20.109375 -1.0625 C 20.390625 -1.0625 20.65625 -1.078125 20.90625 -1.109375 C 21.164062 -1.140625 21.378906 -1.191406 21.546875 -1.265625 Z M 21.546875 -1.265625 "/></g></g></g><g fill="#ffffff" fill-opacity="1"><g transform="translate(141.69785, 197.057691)"><g><path d="M 6.078125 -15.40625 C 5.785156 -15.207031 5.46875 -15 5.125 -14.78125 C 4.78125 -14.5625 4.445312 -14.382812 4.125 -14.25 C 4.101562 -13.34375 4.082031 -12.515625 4.0625 -11.765625 C 4.039062 -11.015625 4.019531 -10.335938 4 -9.734375 C 3.988281 -9.140625 3.976562 -8.609375 3.96875 -8.140625 C 3.957031 -7.679688 3.953125 -7.273438 3.953125 -6.921875 C 3.929688 -6.109375 3.925781 -5.488281 3.9375 -5.0625 C 3.925781 -4.5625 4 -4.070312 4.15625 -3.59375 C 4.3125 -3.113281 4.5625 -2.6875 4.90625 -2.3125 C 5.257812 -1.9375 5.722656 -1.632812 6.296875 -1.40625 C 6.867188 -1.175781 7.5625 -1.0625 8.375 -1.0625 C 8.8125 -1.082031 9.269531 -1.148438 9.75 -1.265625 C 10.15625 -1.359375 10.601562 -1.503906 11.09375 -1.703125 C 11.582031 -1.898438 12.0625 -2.191406 12.53125 -2.578125 L 12.53125 -14.125 C 12.425781 -14.132812 12.320312 -14.140625 12.21875 -14.140625 C 12.113281 -14.140625 12.007812 -14.140625 11.90625 -14.140625 C 11.707031 -14.140625 11.507812 -14.132812 11.3125 -14.125 C 11.125 -14.113281 10.945312 -14.097656 10.78125 -14.078125 C 11.113281 -14.378906 11.410156 -14.609375 11.671875 -14.765625 C 11.929688 -14.921875 12.15625 -15.035156 12.34375 -15.109375 C 12.550781 -15.191406 12.734375 -15.242188 12.890625 -15.265625 C 13.023438 -15.265625 13.195312 -15.265625 13.40625 -15.265625 C 13.613281 -15.273438 13.832031 -15.28125 14.0625 -15.28125 C 14.289062 -15.289062 14.523438 -15.300781 14.765625 -15.3125 C 15.003906 -15.320312 15.222656 -15.332031 15.421875 -15.34375 C 15.628906 -15.351562 15.804688 -15.363281 15.953125 -15.375 C 16.097656 -15.382812 16.195312 -15.394531 16.25 -15.40625 C 16 -15.226562 15.71875 -15.039062 15.40625 -14.84375 C 15.09375 -14.65625 14.796875 -14.492188 14.515625 -14.359375 L 14.515625 -3.359375 C 14.503906 -3.015625 14.484375 -2.691406 14.453125 -2.390625 C 14.421875 -2.128906 14.375 -1.875 14.3125 -1.625 C 14.25 -1.382812 14.15625 -1.21875 14.03125 -1.125 C 14.4375 -1.070312 14.789062 -1.035156 15.09375 -1.015625 C 15.394531 -1.003906 15.660156 -1 15.890625 -1 C 16.296875 -1 16.585938 -1.015625 16.765625 -1.046875 C 16.941406 -1.078125 17.039062 -1.097656 17.0625 -1.109375 C 16.726562 -0.921875 16.421875 -0.753906 16.140625 -0.609375 C 15.867188 -0.472656 15.609375 -0.359375 15.359375 -0.265625 C 15.117188 -0.179688 14.878906 -0.113281 14.640625 -0.0625 C 14.410156 -0.0195312 14.179688 0 13.953125 0 L 11.875 0 C 12.03125 -0.0507812 12.148438 -0.171875 12.234375 -0.359375 C 12.328125 -0.554688 12.398438 -0.757812 12.453125 -0.96875 C 12.492188 -1.207031 12.519531 -1.46875 12.53125 -1.75 L 12.53125 -2.25 C 11.78125 -1.632812 11.0625 -1.164062 10.375 -0.84375 C 9.6875 -0.519531 9.078125 -0.28125 8.546875 -0.125 C 7.929688 0.0507812 7.347656 0.148438 6.796875 0.171875 C 5.898438 0.171875 5.144531 0.0507812 4.53125 -0.1875 C 3.925781 -0.425781 3.441406 -0.757812 3.078125 -1.1875 C 2.710938 -1.613281 2.453125 -2.125 2.296875 -2.71875 C 2.148438 -3.320312 2.085938 -3.984375 2.109375 -4.703125 C 2.097656 -5.285156 2.097656 -6.023438 2.109375 -6.921875 C 2.117188 -7.691406 2.128906 -8.671875 2.140625 -9.859375 C 2.160156 -11.046875 2.191406 -12.472656 2.234375 -14.140625 L 1.75 -14.140625 C 1.550781 -14.140625 1.351562 -14.132812 1.15625 -14.125 C 0.957031 -14.113281 0.773438 -14.097656 0.609375 -14.078125 C 0.941406 -14.378906 1.238281 -14.609375 1.5 -14.765625 C 1.757812 -14.921875 1.984375 -15.035156 2.171875 -15.109375 C 2.378906 -15.191406 2.566406 -15.242188 2.734375 -15.265625 C 2.867188 -15.265625 3.035156 -15.265625 3.234375 -15.265625 C 3.441406 -15.273438 3.660156 -15.28125 3.890625 -15.28125 C 4.128906 -15.289062 4.367188 -15.300781 4.609375 -15.3125 C 4.847656 -15.320312 5.066406 -15.332031 5.265625 -15.34375 C 5.472656 -15.351562 5.644531 -15.363281 5.78125 -15.375 C 5.925781 -15.382812 6.023438 -15.394531 6.078125 -15.40625 Z M 17.0625 -1.109375 L 17.0625 -1.125 L 17.078125 -1.125 C 17.085938 -1.125 17.09375 -1.125 17.09375 -1.125 Z M 17.0625 -1.109375 "/></g></g></g><g fill="#ffffff" fill-opacity="1"><g transform="translate(160.300139, 197.057691)"><g><path d="M 6.171875 -15.890625 C 5.835938 -15.671875 5.535156 -15.488281 5.265625 -15.34375 C 4.992188 -15.195312 4.738281 -15.070312 4.5 -14.96875 C 4.488281 -14.363281 4.472656 -13.796875 4.453125 -13.265625 C 4.441406 -12.742188 4.429688 -12.25 4.421875 -11.78125 C 4.410156 -11.320312 4.398438 -10.882812 4.390625 -10.46875 C 4.390625 -10.0625 4.382812 -9.664062 4.375 -9.28125 C 4.75 -9.363281 5.140625 -9.40625 5.546875 -9.40625 C 5.941406 -9.40625 6.394531 -9.398438 6.90625 -9.390625 C 7.425781 -9.378906 7.960938 -9.363281 8.515625 -9.34375 C 9.066406 -9.320312 9.625 -9.304688 10.1875 -9.296875 C 10.75 -9.285156 11.273438 -9.28125 11.765625 -9.28125 L 12.265625 -9.28125 L 12.265625 -14.59375 C 12.046875 -14.570312 11.773438 -14.546875 11.453125 -14.515625 C 11.140625 -14.484375 10.785156 -14.441406 10.390625 -14.390625 C 10.773438 -14.703125 11.117188 -14.9375 11.421875 -15.09375 C 11.722656 -15.257812 11.984375 -15.378906 12.203125 -15.453125 C 12.460938 -15.535156 12.691406 -15.585938 12.890625 -15.609375 C 13.148438 -15.609375 13.425781 -15.613281 13.71875 -15.625 C 14.019531 -15.632812 14.3125 -15.648438 14.59375 -15.671875 C 14.882812 -15.703125 15.144531 -15.734375 15.375 -15.765625 C 15.601562 -15.804688 15.773438 -15.847656 15.890625 -15.890625 C 15.554688 -15.671875 15.253906 -15.488281 14.984375 -15.34375 C 14.722656 -15.195312 14.472656 -15.070312 14.234375 -14.96875 C 14.191406 -13.675781 14.160156 -12.519531 14.140625 -11.5 C 14.117188 -10.488281 14.097656 -9.585938 14.078125 -8.796875 C 14.066406 -8.015625 14.054688 -7.332031 14.046875 -6.75 C 14.035156 -6.175781 14.023438 -5.6875 14.015625 -5.28125 C 13.992188 -4.332031 13.988281 -3.6875 14 -3.34375 C 13.988281 -3.082031 13.953125 -2.820312 13.890625 -2.5625 C 13.828125 -2.34375 13.738281 -2.101562 13.625 -1.84375 C 13.507812 -1.59375 13.347656 -1.363281 13.140625 -1.15625 C 13.265625 -1.144531 13.382812 -1.132812 13.5 -1.125 C 13.625 -1.125 13.75 -1.125 13.875 -1.125 C 14.207031 -1.125 14.503906 -1.140625 14.765625 -1.171875 C 15.035156 -1.210938 15.269531 -1.25 15.46875 -1.28125 C 15.664062 -1.3125 15.820312 -1.34375 15.9375 -1.375 C 16.050781 -1.414062 16.125 -1.445312 16.15625 -1.46875 C 15.769531 -1.207031 15.453125 -0.984375 15.203125 -0.796875 C 14.960938 -0.609375 14.738281 -0.457031 14.53125 -0.34375 C 14.332031 -0.226562 14.140625 -0.140625 13.953125 -0.078125 C 13.765625 -0.0234375 13.539062 0 13.28125 0 C 12.945312 0 12.660156 -0.0078125 12.421875 -0.03125 C 12.179688 -0.0625 11.941406 -0.078125 11.703125 -0.078125 C 11.578125 -0.078125 11.453125 -0.0703125 11.328125 -0.0625 C 11.203125 -0.0507812 11.0625 -0.03125 10.90625 0 C 11.132812 -0.101562 11.332031 -0.210938 11.5 -0.328125 C 11.675781 -0.453125 11.816406 -0.617188 11.921875 -0.828125 C 12.035156 -1.035156 12.117188 -1.3125 12.171875 -1.65625 C 12.234375 -2 12.265625 -2.460938 12.265625 -3.046875 L 12.265625 -8.59375 C 12.054688 -8.550781 11.820312 -8.515625 11.5625 -8.484375 C 11.3125 -8.453125 11.019531 -8.4375 10.6875 -8.4375 C 10.21875 -8.4375 9.675781 -8.453125 9.0625 -8.484375 C 8.445312 -8.515625 7.769531 -8.53125 7.03125 -8.53125 C 6.59375 -8.53125 6.148438 -8.519531 5.703125 -8.5 C 5.265625 -8.476562 4.816406 -8.441406 4.359375 -8.390625 C 4.328125 -7.347656 4.304688 -6.5 4.296875 -5.84375 C 4.285156 -5.1875 4.273438 -4.671875 4.265625 -4.296875 C 4.265625 -3.867188 4.265625 -3.550781 4.265625 -3.34375 C 4.253906 -3.082031 4.21875 -2.820312 4.15625 -2.5625 C 4.09375 -2.34375 4.003906 -2.101562 3.890625 -1.84375 C 3.773438 -1.59375 3.613281 -1.363281 3.40625 -1.15625 C 3.539062 -1.144531 3.664062 -1.132812 3.78125 -1.125 C 3.90625 -1.125 4.03125 -1.125 4.15625 -1.125 C 4.488281 -1.125 4.785156 -1.140625 5.046875 -1.171875 C 5.316406 -1.210938 5.550781 -1.25 5.75 -1.28125 C 5.945312 -1.3125 6.097656 -1.34375 6.203125 -1.375 C 6.316406 -1.414062 6.390625 -1.445312 6.421875 -1.46875 C 6.046875 -1.207031 5.734375 -0.984375 5.484375 -0.796875 C 5.234375 -0.609375 5.007812 -0.457031 4.8125 -0.34375 C 4.613281 -0.226562 4.421875 -0.140625 4.234375 -0.078125 C 4.046875 -0.0234375 3.820312 0 3.5625 0 C 3.21875 0 2.925781 -0.0078125 2.6875 -0.03125 C 2.445312 -0.0625 2.207031 -0.078125 1.96875 -0.078125 C 1.84375 -0.078125 1.71875 -0.0703125 1.59375 -0.0625 C 1.46875 -0.0507812 1.332031 -0.03125 1.1875 0 C 1.382812 -0.164062 1.5625 -0.347656 1.71875 -0.546875 C 1.882812 -0.753906 2.023438 -1.003906 2.140625 -1.296875 C 2.265625 -1.585938 2.359375 -1.9375 2.421875 -2.34375 C 2.484375 -2.75 2.515625 -3.242188 2.515625 -3.828125 L 2.515625 -8.0625 C 2.359375 -8.03125 2.195312 -7.992188 2.03125 -7.953125 C 1.875 -7.910156 1.71875 -7.859375 1.5625 -7.796875 C 1.71875 -7.941406 1.875 -8.070312 2.03125 -8.1875 C 2.195312 -8.3125 2.359375 -8.429688 2.515625 -8.546875 L 2.515625 -14.59375 C 2.296875 -14.570312 2.03125 -14.546875 1.71875 -14.515625 C 1.40625 -14.484375 1.050781 -14.441406 0.65625 -14.390625 C 1.039062 -14.703125 1.382812 -14.9375 1.6875 -15.09375 C 2 -15.257812 2.265625 -15.378906 2.484375 -15.453125 C 2.742188 -15.535156 2.972656 -15.585938 3.171875 -15.609375 C 3.421875 -15.609375 3.695312 -15.613281 4 -15.625 C 4.300781 -15.632812 4.59375 -15.648438 4.875 -15.671875 C 5.15625 -15.703125 5.410156 -15.734375 5.640625 -15.765625 C 5.878906 -15.804688 6.054688 -15.847656 6.171875 -15.890625 Z M 6.421875 -1.46875 C 6.429688 -1.476562 6.441406 -1.484375 6.453125 -1.484375 Z M 16.15625 -1.46875 C 16.164062 -1.476562 16.175781 -1.484375 16.1875 -1.484375 Z M 16.15625 -1.46875 "/></g></g></g><g fill="#ffffff" fill-opacity="1"><g transform="translate(178.486105, 197.057691)"><g><path d="M 4.265625 -1.109375 C 3.878906 -0.898438 3.515625 -0.722656 3.171875 -0.578125 C 2.828125 -0.429688 2.503906 -0.316406 2.203125 -0.234375 C 1.910156 -0.148438 1.644531 -0.0859375 1.40625 -0.046875 C 1.164062 -0.015625 0.960938 0 0.796875 0 L -0.8125 0 L 0.359375 -0.65625 C 0.472656 -0.8125 0.585938 -0.96875 0.703125 -1.125 C 0.816406 -1.28125 0.914062 -1.425781 1 -1.5625 C 1.082031 -1.707031 1.164062 -1.851562 1.25 -2 C 1.46875 -2.445312 1.796875 -3.175781 2.234375 -4.1875 C 2.410156 -4.613281 2.617188 -5.117188 2.859375 -5.703125 C 3.109375 -6.296875 3.390625 -6.984375 3.703125 -7.765625 C 4.023438 -8.546875 4.382812 -9.4375 4.78125 -10.4375 C 5.175781 -11.4375 5.613281 -12.554688 6.09375 -13.796875 L 7.953125 -15.5 L 12.140625 -1.3125 C 12.429688 -1.238281 12.710938 -1.1875 12.984375 -1.15625 C 13.265625 -1.132812 13.523438 -1.125 13.765625 -1.125 C 13.898438 -1.125 14.019531 -1.125 14.125 -1.125 C 14.226562 -1.132812 14.320312 -1.144531 14.40625 -1.15625 C 14.488281 -1.15625 14.566406 -1.164062 14.640625 -1.1875 C 14.234375 -0.988281 13.875 -0.816406 13.5625 -0.671875 C 13.257812 -0.523438 12.988281 -0.398438 12.75 -0.296875 C 12.507812 -0.203125 12.285156 -0.128906 12.078125 -0.078125 C 11.878906 -0.0234375 11.675781 0 11.46875 0 L 9.765625 0 L 10.328125 -0.359375 L 8.609375 -6.015625 C 8.398438 -5.953125 8.160156 -5.894531 7.890625 -5.84375 C 7.628906 -5.789062 7.3125 -5.742188 6.9375 -5.703125 C 6.5625 -5.660156 6.125 -5.617188 5.625 -5.578125 C 5.132812 -5.546875 4.566406 -5.515625 3.921875 -5.484375 C 3.617188 -4.847656 3.34375 -4.285156 3.09375 -3.796875 C 2.84375 -3.304688 2.617188 -2.878906 2.421875 -2.515625 C 2.222656 -2.148438 2.046875 -1.84375 1.890625 -1.59375 C 1.742188 -1.351562 1.613281 -1.15625 1.5 -1 C 1.625 -0.976562 1.757812 -0.960938 1.90625 -0.953125 C 2.0625 -0.941406 2.210938 -0.9375 2.359375 -0.9375 C 2.585938 -0.9375 2.8125 -0.945312 3.03125 -0.96875 C 3.257812 -0.988281 3.46875 -1.007812 3.65625 -1.03125 C 3.863281 -1.050781 4.066406 -1.078125 4.265625 -1.109375 Z M 5.75 -6.75 C 6.707031 -6.75 7.582031 -6.773438 8.375 -6.828125 L 6.734375 -12.25 C 6.296875 -11.113281 5.890625 -10.097656 5.515625 -9.203125 C 5.148438 -8.316406 4.804688 -7.5 4.484375 -6.75 Z M 5.75 -6.75 "/></g></g></g><g fill="#ffffff" fill-opacity="1"><g transform="translate(194.099409, 197.057691)"><g><path d="M 9.015625 -8.03125 C 8.953125 -7.988281 8.859375 -7.929688 8.734375 -7.859375 C 8.617188 -7.773438 8.457031 -7.664062 8.25 -7.53125 C 8.039062 -7.394531 7.765625 -7.207031 7.421875 -6.96875 C 7.484375 -7.070312 7.484375 -7.148438 7.421875 -7.203125 C 7.359375 -7.265625 7.28125 -7.304688 7.1875 -7.328125 C 7.0625 -7.359375 6.914062 -7.367188 6.75 -7.359375 C 6.5 -7.335938 6.164062 -7.3125 5.75 -7.28125 C 5.34375 -7.257812 4.882812 -7.238281 4.375 -7.21875 C 4.363281 -6.164062 4.351562 -5.304688 4.34375 -4.640625 C 4.332031 -3.972656 4.328125 -3.453125 4.328125 -3.078125 C 4.304688 -2.628906 4.289062 -2.296875 4.28125 -2.078125 C 4.269531 -1.941406 4.226562 -1.804688 4.15625 -1.671875 C 4.09375 -1.546875 4 -1.414062 3.875 -1.28125 C 3.75 -1.144531 3.578125 -1.023438 3.359375 -0.921875 C 3.796875 -0.921875 4.226562 -0.929688 4.65625 -0.953125 C 5.019531 -0.984375 5.40625 -1.019531 5.8125 -1.0625 C 6.21875 -1.113281 6.585938 -1.191406 6.921875 -1.296875 C 6.585938 -0.992188 6.25 -0.753906 5.90625 -0.578125 C 5.5625 -0.398438 5.21875 -0.257812 4.875 -0.15625 C 4.53125 -0.0625 4.191406 0.00390625 3.859375 0.046875 C 3.523438 0.0976562 3.210938 0.128906 2.921875 0.140625 C 2.640625 0.148438 2.375 0.160156 2.125 0.171875 C 1.882812 0.191406 1.675781 0.222656 1.5 0.265625 C 1.71875 0.046875 1.890625 -0.164062 2.015625 -0.375 C 2.140625 -0.59375 2.234375 -0.832031 2.296875 -1.09375 C 2.367188 -1.363281 2.410156 -1.660156 2.421875 -1.984375 C 2.441406 -2.316406 2.445312 -2.710938 2.4375 -3.171875 L 2.4375 -7.1875 C 2.25 -7.1875 2.054688 -7.191406 1.859375 -7.203125 C 1.660156 -7.210938 1.460938 -7.222656 1.265625 -7.234375 L 2.4375 -7.84375 C 2.4375 -8.238281 2.4375 -8.65625 2.4375 -9.09375 C 2.4375 -9.539062 2.4375 -10.019531 2.4375 -10.53125 C 2.4375 -11.050781 2.429688 -11.609375 2.421875 -12.203125 C 2.421875 -12.804688 2.421875 -13.457031 2.421875 -14.15625 C 2.097656 -14.15625 1.796875 -14.160156 1.515625 -14.171875 C 1.234375 -14.179688 0.96875 -14.191406 0.71875 -14.203125 L 2.71875 -15.265625 C 4.0625 -15.265625 5.210938 -15.269531 6.171875 -15.28125 C 7.128906 -15.300781 7.921875 -15.320312 8.546875 -15.34375 C 9.273438 -15.375 9.878906 -15.40625 10.359375 -15.4375 C 10.609375 -15.4375 10.769531 -15.414062 10.84375 -15.375 C 10.925781 -15.332031 10.957031 -15.285156 10.9375 -15.234375 C 10.925781 -15.191406 10.882812 -15.144531 10.8125 -15.09375 C 10.738281 -15.050781 10.675781 -15.019531 10.625 -15 C 10.5625 -14.96875 10.453125 -14.90625 10.296875 -14.8125 C 10.160156 -14.738281 9.96875 -14.617188 9.71875 -14.453125 C 9.476562 -14.285156 9.144531 -14.054688 8.71875 -13.765625 C 8.863281 -13.921875 8.925781 -14.035156 8.90625 -14.109375 C 8.882812 -14.191406 8.832031 -14.25 8.75 -14.28125 C 8.65625 -14.3125 8.53125 -14.328125 8.375 -14.328125 C 8.238281 -14.316406 8.035156 -14.304688 7.765625 -14.296875 C 7.492188 -14.285156 7.175781 -14.269531 6.8125 -14.25 C 6.457031 -14.238281 6.066406 -14.226562 5.640625 -14.21875 C 5.222656 -14.207031 4.796875 -14.195312 4.359375 -14.1875 C 4.367188 -12.957031 4.375 -11.859375 4.375 -10.890625 C 4.375 -9.929688 4.375 -9.054688 4.375 -8.265625 C 5.019531 -8.265625 5.609375 -8.273438 6.140625 -8.296875 C 6.679688 -8.316406 7.144531 -8.335938 7.53125 -8.359375 C 7.976562 -8.390625 8.378906 -8.414062 8.734375 -8.4375 C 8.984375 -8.445312 9.144531 -8.4375 9.21875 -8.40625 C 9.300781 -8.375 9.332031 -8.332031 9.3125 -8.28125 C 9.300781 -8.226562 9.257812 -8.175781 9.1875 -8.125 C 9.113281 -8.082031 9.054688 -8.050781 9.015625 -8.03125 Z M 9.015625 -8.03125 "/></g></g></g><g fill="#ffffff" fill-opacity="1"><g transform="translate(206.456852, 197.057691)"><g><path d="M 4.265625 -1.109375 C 3.878906 -0.898438 3.515625 -0.722656 3.171875 -0.578125 C 2.828125 -0.429688 2.503906 -0.316406 2.203125 -0.234375 C 1.910156 -0.148438 1.644531 -0.0859375 1.40625 -0.046875 C 1.164062 -0.015625 0.960938 0 0.796875 0 L -0.8125 0 L 0.359375 -0.65625 C 0.472656 -0.8125 0.585938 -0.96875 0.703125 -1.125 C 0.816406 -1.28125 0.914062 -1.425781 1 -1.5625 C 1.082031 -1.707031 1.164062 -1.851562 1.25 -2 C 1.46875 -2.445312 1.796875 -3.175781 2.234375 -4.1875 C 2.410156 -4.613281 2.617188 -5.117188 2.859375 -5.703125 C 3.109375 -6.296875 3.390625 -6.984375 3.703125 -7.765625 C 4.023438 -8.546875 4.382812 -9.4375 4.78125 -10.4375 C 5.175781 -11.4375 5.613281 -12.554688 6.09375 -13.796875 L 7.953125 -15.5 L 12.140625 -1.3125 C 12.429688 -1.238281 12.710938 -1.1875 12.984375 -1.15625 C 13.265625 -1.132812 13.523438 -1.125 13.765625 -1.125 C 13.898438 -1.125 14.019531 -1.125 14.125 -1.125 C 14.226562 -1.132812 14.320312 -1.144531 14.40625 -1.15625 C 14.488281 -1.15625 14.566406 -1.164062 14.640625 -1.1875 C 14.234375 -0.988281 13.875 -0.816406 13.5625 -0.671875 C 13.257812 -0.523438 12.988281 -0.398438 12.75 -0.296875 C 12.507812 -0.203125 12.285156 -0.128906 12.078125 -0.078125 C 11.878906 -0.0234375 11.675781 0 11.46875 0 L 9.765625 0 L 10.328125 -0.359375 L 8.609375 -6.015625 C 8.398438 -5.953125 8.160156 -5.894531 7.890625 -5.84375 C 7.628906 -5.789062 7.3125 -5.742188 6.9375 -5.703125 C 6.5625 -5.660156 6.125 -5.617188 5.625 -5.578125 C 5.132812 -5.546875 4.566406 -5.515625 3.921875 -5.484375 C 3.617188 -4.847656 3.34375 -4.285156 3.09375 -3.796875 C 2.84375 -3.304688 2.617188 -2.878906 2.421875 -2.515625 C 2.222656 -2.148438 2.046875 -1.84375 1.890625 -1.59375 C 1.742188 -1.351562 1.613281 -1.15625 1.5 -1 C 1.625 -0.976562 1.757812 -0.960938 1.90625 -0.953125 C 2.0625 -0.941406 2.210938 -0.9375 2.359375 -0.9375 C 2.585938 -0.9375 2.8125 -0.945312 3.03125 -0.96875 C 3.257812 -0.988281 3.46875 -1.007812 3.65625 -1.03125 C 3.863281 -1.050781 4.066406 -1.078125 4.265625 -1.109375 Z M 5.75 -6.75 C 6.707031 -6.75 7.582031 -6.773438 8.375 -6.828125 L 6.734375 -12.25 C 6.296875 -11.113281 5.890625 -10.097656 5.515625 -9.203125 C 5.148438 -8.316406 4.804688 -7.5 4.484375 -6.75 Z M 5.75 -6.75 "/></g></g></g><g fill="#ffffff" fill-opacity="1"><g transform="translate(222.070156, 197.057691)"><g><path d="M 11.390625 -11.453125 C 11.328125 -10.921875 11.179688 -10.453125 10.953125 -10.046875 C 10.734375 -9.648438 10.460938 -9.296875 10.140625 -8.984375 C 9.816406 -8.679688 9.472656 -8.421875 9.109375 -8.203125 C 8.742188 -7.992188 8.394531 -7.816406 8.0625 -7.671875 C 8.695312 -6.992188 9.265625 -6.390625 9.765625 -5.859375 C 10.265625 -5.335938 10.707031 -4.875 11.09375 -4.46875 C 11.488281 -4.0625 11.828125 -3.710938 12.109375 -3.421875 C 12.398438 -3.128906 12.648438 -2.878906 12.859375 -2.671875 C 13.347656 -2.203125 13.6875 -1.890625 13.875 -1.734375 C 14.070312 -1.578125 14.285156 -1.46875 14.515625 -1.40625 C 14.753906 -1.34375 14.984375 -1.3125 15.203125 -1.3125 C 15.390625 -1.3125 15.566406 -1.328125 15.734375 -1.359375 C 15.910156 -1.398438 16.050781 -1.441406 16.15625 -1.484375 C 15.8125 -1.253906 15.507812 -1.046875 15.25 -0.859375 C 14.988281 -0.679688 14.75 -0.523438 14.53125 -0.390625 C 14.3125 -0.253906 14.101562 -0.148438 13.90625 -0.078125 C 13.71875 -0.015625 13.519531 0.015625 13.3125 0.015625 C 13.164062 0.015625 13.023438 -0.00390625 12.890625 -0.046875 C 12.753906 -0.0859375 12.609375 -0.15625 12.453125 -0.25 C 12.296875 -0.34375 12.128906 -0.457031 11.953125 -0.59375 C 11.785156 -0.738281 11.597656 -0.910156 11.390625 -1.109375 C 11.253906 -1.242188 11.050781 -1.460938 10.78125 -1.765625 C 10.507812 -2.066406 10.207031 -2.40625 9.875 -2.78125 C 9.539062 -3.15625 9.191406 -3.546875 8.828125 -3.953125 C 8.460938 -4.359375 8.117188 -4.734375 7.796875 -5.078125 C 7.484375 -5.421875 7.203125 -5.71875 6.953125 -5.96875 C 6.703125 -6.21875 6.535156 -6.367188 6.453125 -6.421875 C 6.335938 -6.484375 6.222656 -6.539062 6.109375 -6.59375 C 6.003906 -6.632812 5.882812 -6.671875 5.75 -6.703125 C 5.625 -6.734375 5.5 -6.742188 5.375 -6.734375 L 6.921875 -7.796875 C 7.273438 -7.796875 7.613281 -7.878906 7.9375 -8.046875 C 8.269531 -8.210938 8.550781 -8.453125 8.78125 -8.765625 C 9.019531 -9.085938 9.207031 -9.472656 9.34375 -9.921875 C 9.476562 -10.378906 9.535156 -10.894531 9.515625 -11.46875 C 9.492188 -11.8125 9.414062 -12.125 9.28125 -12.40625 C 9.144531 -12.6875 8.96875 -12.9375 8.75 -13.15625 C 8.53125 -13.375 8.28125 -13.566406 8 -13.734375 C 7.726562 -13.898438 7.445312 -14.035156 7.15625 -14.140625 C 6.863281 -14.253906 6.570312 -14.335938 6.28125 -14.390625 C 5.988281 -14.441406 5.722656 -14.46875 5.484375 -14.46875 C 5.316406 -14.46875 5.140625 -14.460938 4.953125 -14.453125 C 4.765625 -14.453125 4.570312 -14.453125 4.375 -14.453125 C 4.351562 -13.117188 4.328125 -11.925781 4.296875 -10.875 C 4.273438 -9.832031 4.253906 -8.90625 4.234375 -8.09375 C 4.210938 -7.289062 4.191406 -6.59375 4.171875 -6 C 4.160156 -5.414062 4.144531 -4.914062 4.125 -4.5 C 4.082031 -3.53125 4.039062 -2.878906 4 -2.546875 C 3.976562 -2.398438 3.941406 -2.253906 3.890625 -2.109375 C 3.847656 -1.972656 3.789062 -1.832031 3.71875 -1.6875 C 3.644531 -1.539062 3.550781 -1.394531 3.4375 -1.25 C 3.738281 -1.21875 4.007812 -1.195312 4.25 -1.1875 C 4.5 -1.1875 4.726562 -1.1875 4.9375 -1.1875 C 5.425781 -1.1875 5.785156 -1.195312 6.015625 -1.21875 C 6.253906 -1.25 6.390625 -1.273438 6.421875 -1.296875 C 6.054688 -1.109375 5.707031 -0.9375 5.375 -0.78125 C 5.050781 -0.625 4.738281 -0.484375 4.4375 -0.359375 C 4.132812 -0.242188 3.847656 -0.148438 3.578125 -0.078125 C 3.304688 -0.015625 3.039062 0.015625 2.78125 0.015625 L 0.921875 0.015625 L 1.859375 -0.609375 C 1.910156 -0.796875 1.957031 -1.015625 2 -1.265625 C 2.050781 -1.523438 2.09375 -1.800781 2.125 -2.09375 C 2.15625 -2.394531 2.179688 -2.703125 2.203125 -3.015625 C 2.234375 -3.328125 2.257812 -3.640625 2.28125 -3.953125 C 2.320312 -4.648438 2.351562 -5.394531 2.375 -6.1875 C 2.394531 -7.28125 2.410156 -8.332031 2.421875 -9.34375 C 2.429688 -9.78125 2.4375 -10.226562 2.4375 -10.6875 C 2.445312 -11.144531 2.453125 -11.59375 2.453125 -12.03125 C 2.460938 -12.46875 2.46875 -12.882812 2.46875 -13.28125 C 2.476562 -13.675781 2.484375 -14.023438 2.484375 -14.328125 L 0.5625 -14.1875 L 2.640625 -15.4375 C 2.765625 -15.414062 2.898438 -15.398438 3.046875 -15.390625 C 3.191406 -15.390625 3.34375 -15.390625 3.5 -15.390625 C 3.800781 -15.390625 4.101562 -15.398438 4.40625 -15.421875 C 4.707031 -15.453125 5.003906 -15.484375 5.296875 -15.515625 C 5.597656 -15.546875 5.890625 -15.570312 6.171875 -15.59375 C 6.453125 -15.625 6.738281 -15.640625 7.03125 -15.640625 C 7.601562 -15.640625 8.160156 -15.546875 8.703125 -15.359375 C 9.253906 -15.171875 9.738281 -14.894531 10.15625 -14.53125 C 10.570312 -14.164062 10.894531 -13.722656 11.125 -13.203125 C 11.363281 -12.679688 11.453125 -12.097656 11.390625 -11.453125 Z M 16.1875 -1.5 C 16.164062 -1.5 16.15625 -1.5 16.15625 -1.5 L 16.15625 -1.484375 L 16.15625 -1.5 C 16.164062 -1.5 16.175781 -1.5 16.1875 -1.5 Z M 16.1875 -1.5 "/></g></g></g><g fill="#ffffff" fill-opacity="1"><g transform="translate(238.441374, 197.057691)"><g><path d="M 10.15625 -4.5 C 10.15625 -4.132812 10.035156 -3.757812 9.796875 -3.375 C 9.566406 -3 9.257812 -2.628906 8.875 -2.265625 C 8.5 -1.910156 8.070312 -1.570312 7.59375 -1.25 C 7.125 -0.925781 6.648438 -0.640625 6.171875 -0.390625 C 5.691406 -0.148438 5.226562 0.0390625 4.78125 0.1875 C 4.34375 0.332031 3.972656 0.410156 3.671875 0.421875 C 3.378906 0.429688 3.066406 0.40625 2.734375 0.34375 C 2.398438 0.28125 2.082031 0.195312 1.78125 0.09375 C 1.476562 0 1.207031 -0.0976562 0.96875 -0.203125 C 0.726562 -0.316406 0.566406 -0.414062 0.484375 -0.5 C 0.429688 -0.5625 0.390625 -0.625 0.359375 -0.6875 C 0.328125 -0.757812 0.3125 -0.832031 0.3125 -0.90625 C 0.3125 -0.988281 0.332031 -1.070312 0.375 -1.15625 C 0.425781 -1.25 0.503906 -1.34375 0.609375 -1.4375 C 0.710938 -1.519531 0.835938 -1.617188 0.984375 -1.734375 C 1.109375 -1.835938 1.269531 -1.96875 1.46875 -2.125 C 1.664062 -2.289062 1.910156 -2.488281 2.203125 -2.71875 C 2.097656 -2.601562 2.03125 -2.5 2 -2.40625 C 1.976562 -2.320312 1.96875 -2.238281 1.96875 -2.15625 C 1.976562 -2.070312 2.007812 -1.992188 2.0625 -1.921875 C 2.132812 -1.828125 2.257812 -1.722656 2.4375 -1.609375 C 2.613281 -1.492188 2.828125 -1.390625 3.078125 -1.296875 C 3.328125 -1.203125 3.609375 -1.117188 3.921875 -1.046875 C 4.242188 -0.984375 4.578125 -0.953125 4.921875 -0.953125 C 5.335938 -0.953125 5.75 -0.992188 6.15625 -1.078125 C 6.570312 -1.160156 6.945312 -1.296875 7.28125 -1.484375 C 7.613281 -1.679688 7.878906 -1.9375 8.078125 -2.25 C 8.285156 -2.570312 8.390625 -2.96875 8.390625 -3.4375 C 8.390625 -3.875 8.285156 -4.253906 8.078125 -4.578125 C 7.878906 -4.910156 7.613281 -5.207031 7.28125 -5.46875 C 6.957031 -5.738281 6.582031 -5.976562 6.15625 -6.1875 C 5.738281 -6.40625 5.3125 -6.617188 4.875 -6.828125 C 4.4375 -7.046875 4.003906 -7.265625 3.578125 -7.484375 C 3.160156 -7.710938 2.785156 -7.960938 2.453125 -8.234375 C 2.128906 -8.503906 1.863281 -8.8125 1.65625 -9.15625 C 1.457031 -9.507812 1.359375 -9.910156 1.359375 -10.359375 C 1.359375 -10.804688 1.460938 -11.238281 1.671875 -11.65625 C 1.890625 -12.082031 2.175781 -12.484375 2.53125 -12.859375 C 2.894531 -13.234375 3.304688 -13.578125 3.765625 -13.890625 C 4.222656 -14.210938 4.691406 -14.488281 5.171875 -14.71875 C 5.660156 -14.957031 6.132812 -15.140625 6.59375 -15.265625 C 7.0625 -15.398438 7.484375 -15.472656 7.859375 -15.484375 C 8.222656 -15.484375 8.570312 -15.460938 8.90625 -15.421875 C 9.238281 -15.390625 9.519531 -15.332031 9.75 -15.25 C 9.976562 -15.175781 10.132812 -15.078125 10.21875 -14.953125 C 10.3125 -14.835938 10.289062 -14.707031 10.15625 -14.5625 C 10.050781 -14.4375 9.921875 -14.304688 9.765625 -14.171875 C 9.617188 -14.054688 9.441406 -13.921875 9.234375 -13.765625 C 9.035156 -13.617188 8.785156 -13.457031 8.484375 -13.28125 C 8.546875 -13.375 8.578125 -13.453125 8.578125 -13.515625 C 8.585938 -13.585938 8.585938 -13.644531 8.578125 -13.6875 C 8.546875 -13.738281 8.515625 -13.78125 8.484375 -13.8125 C 8.429688 -13.851562 8.34375 -13.898438 8.21875 -13.953125 C 8.09375 -14.003906 7.9375 -14.050781 7.75 -14.09375 C 7.570312 -14.144531 7.363281 -14.1875 7.125 -14.21875 C 6.894531 -14.25 6.644531 -14.265625 6.375 -14.265625 C 5.957031 -14.265625 5.550781 -14.210938 5.15625 -14.109375 C 4.757812 -14.015625 4.410156 -13.859375 4.109375 -13.640625 C 3.804688 -13.429688 3.5625 -13.160156 3.375 -12.828125 C 3.195312 -12.503906 3.109375 -12.117188 3.109375 -11.671875 C 3.109375 -11.191406 3.207031 -10.769531 3.40625 -10.40625 C 3.613281 -10.039062 3.878906 -9.71875 4.203125 -9.4375 C 4.535156 -9.15625 4.914062 -8.898438 5.34375 -8.671875 C 5.769531 -8.453125 6.203125 -8.234375 6.640625 -8.015625 C 7.078125 -7.804688 7.503906 -7.59375 7.921875 -7.375 C 8.347656 -7.15625 8.722656 -6.910156 9.046875 -6.640625 C 9.378906 -6.367188 9.644531 -6.0625 9.84375 -5.71875 C 10.050781 -5.375 10.15625 -4.96875 10.15625 -4.5 Z M 10.15625 -4.5 "/></g></g></g><g fill="#ffffff" fill-opacity="1"><g transform="translate(251.078111, 197.057691)"><g/></g></g></svg>